<svg width="67" height="63" viewBox="0 0 67 63" fill="none" xmlns="http://www.w3.org/2000/svg">
<g filter="url(#filter0_d_2_2142)">
<path d="M40.746 14.6294L40.746 14.6296L40.7571 14.6356C40.9626 14.7479 41.1432 14.9005 41.2882 15.0843C41.4331 15.2682 41.5393 15.4794 41.6005 15.7053C41.6616 15.9311 41.6765 16.167 41.644 16.3988C41.6116 16.6305 41.5326 16.8534 41.4118 17.0538L41.4118 17.0538L41.4072 17.0617L28.3194 39.7062C28.3191 39.7068 28.3187 39.7074 28.3184 39.708C28.1592 39.9772 27.9328 40.2005 27.6615 40.3562C27.3895 40.5123 27.0816 40.595 26.768 40.5964L26.7583 40.5964L26.7487 40.5968C26.4481 40.6097 26.1505 40.5329 25.8938 40.3763L25.8871 40.3723L25.8804 40.3684C25.6768 40.2528 25.4982 40.098 25.3548 39.913C25.2114 39.728 25.1061 39.5165 25.045 39.2906C24.9838 39.0648 24.968 38.8291 24.9985 38.5971C25.029 38.3651 25.1051 38.1414 25.2226 37.939L25.223 37.9383L38.313 15.2899L38.3147 15.2869C38.4304 15.0835 38.5853 14.9049 38.7704 14.7616C38.9555 14.6183 39.1672 14.513 39.3932 14.4519C39.6193 14.3907 39.8552 14.3749 40.0874 14.4054C40.3196 14.4359 40.5435 14.512 40.746 14.6294ZM30.4504 21.7272L30.4497 21.7474L30.4505 21.7677C30.5344 23.7292 29.8366 25.6439 28.5101 27.092C27.1887 28.5346 25.3508 29.3968 23.3967 29.4915C21.4392 29.3967 19.5973 28.5353 18.27 27.0934C16.9376 25.6459 16.2318 23.7307 16.3064 21.7652L16.3071 21.7474L16.3065 21.7296C16.2412 19.7701 16.9511 17.8637 18.2825 16.4236C19.6088 14.9892 21.4453 14.1326 23.3967 14.0377C25.3446 14.1325 27.1771 14.99 28.4975 16.425C29.823 17.8657 30.525 19.7716 30.4504 21.7272ZM23.3393 25.9078L23.3968 25.9144L23.4543 25.9078C24.4602 25.7912 25.3805 25.2855 26.018 24.4989C26.645 23.7252 26.9493 22.7402 26.8689 21.749C26.9603 20.754 26.6596 19.7617 26.0296 18.9843C25.3891 18.194 24.4608 17.6904 23.4489 17.5842L23.3967 17.5788L23.3446 17.5842C22.331 17.6906 21.4002 18.1919 20.7539 18.9797C20.1169 19.7561 19.807 20.7492 19.8884 21.7489C19.8177 22.7449 20.1311 23.7308 20.7652 24.5036C21.4086 25.2878 22.3316 25.7912 23.3393 25.9078ZM36.2163 33.2384L36.2172 33.2182L36.2164 33.198C36.1418 31.2423 36.8438 29.3364 38.1693 27.8958C39.4897 26.4608 41.3223 25.6033 43.2701 25.5085C45.2215 25.6034 47.058 26.4599 48.3843 27.8944C49.7157 29.3344 50.4257 31.2408 50.3604 33.2004L50.3598 33.2182L50.3604 33.236C50.435 35.2014 49.7292 37.1167 48.3968 38.5642C47.0695 40.0061 45.2277 40.8675 43.2701 40.9623C41.316 40.8676 39.4781 40.0054 38.1567 38.5628C36.8302 37.1147 36.1324 35.1999 36.2163 33.2384ZM43.2125 37.3785L43.27 37.3852L43.3275 37.3786C44.3352 37.262 45.2583 36.7586 45.9016 35.9744C46.5357 35.2016 46.8491 34.2157 46.7784 33.2197C46.8599 32.2199 46.5499 31.2269 45.9129 30.4505C45.2666 29.6627 44.3358 29.1614 43.3223 29.055L43.2674 29.0493L43.2125 29.0556C42.2066 29.1722 41.2863 29.6779 40.6489 30.4645C40.0212 31.2389 39.717 32.2249 39.7982 33.2171C39.717 34.2092 40.0212 35.1952 40.6489 35.9697C41.2863 36.7563 42.2066 37.262 43.2125 37.3785Z" fill="#0066FF" stroke="#0066FF"/>
<path d="M33.3176 0.513857L33.3333 0.514352L33.3491 0.513857C40.7517 0.280879 47.9443 2.99367 53.3474 8.05649C58.7464 13.1155 61.9177 20.1078 62.1664 27.5C61.9177 34.8922 58.7464 41.8845 53.3474 46.9435C47.9443 52.0063 40.7517 54.7191 33.3491 54.4861L33.3333 54.4856L33.3176 54.4861C25.915 54.7191 18.7224 52.0063 13.3193 46.9435C7.92022 41.8845 4.74892 34.8922 4.50028 27.5C4.74892 20.1078 7.92022 13.1155 13.3193 8.05649C18.7224 2.99367 25.915 0.280879 33.3176 0.513857ZM8.08375 27.4796L8.08292 27.5L8.08375 27.5204C8.34679 33.9652 11.1529 40.0436 15.8881 44.4258C20.619 48.804 26.8906 51.1331 33.3333 50.9052C39.7761 51.1331 46.0477 48.804 50.7785 44.4258C55.5138 40.0436 58.3199 33.9652 58.5829 27.5204L58.5838 27.5L58.5829 27.4796C58.3199 21.0348 55.5138 14.9564 50.7785 10.5742C46.0477 6.19602 39.7761 3.86687 33.3333 4.09477C26.8906 3.86687 20.619 6.19602 15.8881 10.5742C11.1529 14.9564 8.34679 21.0348 8.08375 27.4796Z" fill="#0066FF" stroke="#0066FF"/>
</g>
<defs>
<filter id="filter0_d_2_2142" x="0" y="0" width="66.6666" height="63" filterUnits="userSpaceOnUse" color-interpolation-filters="sRGB">
<feFlood flood-opacity="0" result="BackgroundImageFix"/>
<feColorMatrix in="SourceAlpha" type="matrix" values="0 0 0 0 0 0 0 0 0 0 0 0 0 0 0 0 0 0 127 0" result="hardAlpha"/>
<feOffset dy="4"/>
<feGaussianBlur stdDeviation="2"/>
<feComposite in2="hardAlpha" operator="out"/>
<feColorMatrix type="matrix" values="0 0 0 0 0 0 0 0 0 0 0 0 0 0 0 0 0 0 0.25 0"/>
<feBlend mode="normal" in2="BackgroundImageFix" result="effect1_dropShadow_2_2142"/>
<feBlend mode="normal" in="SourceGraphic" in2="effect1_dropShadow_2_2142" result="shape"/>
</filter>
</defs>
</svg>
